<svg width="24" height="25" viewBox="0 0 24 25" fill="none" xmlns="http://www.w3.org/2000/svg">
<g clip-path="url(#clip0_222_116)">
<path d="M24 12.2503C24 5.62285 18.6274 0.250271 12 0.250271C5.37258 0.250271 0 5.62285 0 12.2503C0 18.2398 4.38823 23.2043 10.125 24.1045V15.719H7.07813V12.2503H10.125V9.60652C10.125 6.59902 11.9165 4.93777 14.6576 4.93777C15.9705 4.93777 17.3438 5.17215 17.3438 5.17215V8.12527H15.8306C14.3399 8.12527 13.875 9.05028 13.875 9.99926V12.2503H17.2031L16.6711 15.719H13.875V24.1045C19.6118 23.2043 24 18.2398 24 12.2503Z" fill="#DCD0E8"/>
<path d="M16.6711 15.7192L17.2031 12.2505H13.875V9.99948C13.875 9.0505 14.3399 8.12549 15.8306 8.12549H17.3438V5.17236C17.3438 5.17236 15.9705 4.93799 14.6576 4.93799C11.9165 4.93799 10.125 6.59924 10.125 9.60674V12.2505H7.07812V15.7192H10.125V24.1047C10.7359 24.2006 11.3621 24.2505 12 24.2505C12.6379 24.2505 13.2641 24.2006 13.875 24.1047V15.7192H16.6711Z" fill="#282554"/>
</g>
<defs>
<clipPath id="clip0_222_116">
<rect width="24" height="24" fill="white" transform="translate(0 0.250488)"/>
</clipPath>
</defs>
</svg>
